# xmcd CD database file
#
# Track frame offsets:
#	150
#	12330
#	33480
#	48797
#	53185
#	72025
#	76122
#	90382
#	106672
#	123485
#	139957
#	155167
#	169137
#	184560
#	210277
#
# Disc length: 3223 seconds
#
# Revision: 0
# Processed by: cddbd v1.5.1PL0 Copyright (c) Steve Scherf et al.
# Submitted via: CDex 1.51
#
DISCID=b90c950f
DTITLE=キャスリーン・バトル - So Many Stars
DYEAR=1900
DGENRE=New Age
TTITLE0=ゆりかごの歌
TTITLE1=ねむれ　ねむれ
TTITLE2=青い鳥
TTITLE3=天使たちに見守られて
TTITLE4=家路
TTITLE5=インターリュード
TTITLE6=ハッシュ〜誰かが私の名を呼んでいる
TTITLE7=センチメンタル・メロディ〜アマゾンの森から
TTITLE8=あの人は行ってしまった
TTITLE9=かわいい子馬
TTITLE10=ニンゲ　ニンゲ
TTITLE11=柔らかな君の髪
TTITLE12=ララバイ
TTITLE13=ソー・メニー・スターズ
TTITLE14=静かなる道
EXTD=
EXTT0=
EXTT1=
EXTT2=
EXTT3=
EXTT4=
EXTT5=
EXTT6=
EXTT7=
EXTT8=
EXTT9=
EXTT10=
EXTT11=
EXTT12=
EXTT13=
EXTT14=
PLAYORDER=
